Coordinates
version=1
nRows=8
nColumns=36
inDegrees=yes

Units are S.I. units (second, meters, Newtons, ...)
If the header above contains a line with 'inDegrees', this indicates whether rotational values are in degrees (yes) or radians (no).

endheader
time	pelvis_tilt	pelvis_list	pelvis_rotation	pelvis_tx	pelvis_ty	pelvis_tz	hip_flexion_r	hip_adduction_r	hip_rotation_r	knee_angle_r	knee_angle_r_beta	ankle_angle_r	subtalar_angle_r	mtp_angle_r	hip_flexion_l	hip_adduction_l	hip_rotation_l	knee_angle_l	knee_angle_l_beta	ankle_angle_l	subtalar_angle_l	mtp_angle_l	lumbar_extension	lumbar_bending	lumbar_rotation	arm_flex_r	arm_add_r	arm_rot_r	elbow_flex_r	pro_sup_r	arm_flex_l	arm_add_l	arm_rot_l	elbow_flex_l	pro_sup_l
     14.85000000	      8.05876911	      8.54080556	    179.66469052	      0.27361487	      0.97729404	      0.71032256	     10.85604798	     11.70081026	      2.34904686	     28.19013167	      0.49201061	      8.78833261	      4.78657832	     -7.49999987	     29.33879585	    -14.25638557	    -12.44271921	     11.95590673	      0.20866994	    -30.08514934	     -9.92652325	     -7.49999987	    -18.23239334	      7.99637541	     13.04848519	      4.28651575	    -21.98237247	     -3.18273266	     40.98573056	     78.67004899	      4.72744178	     -6.17149576	     -5.35594189	     26.84902640	     83.84151689
     14.86666670	      8.03991204	      8.37921905	    180.00263145	      0.27448300	      0.97159895	      0.71045452	     10.07081875	     11.18610011	      4.15491681	     26.94689230	      0.47031199	      8.36577126	      5.02377616	     -7.49999987	     29.31823009	    -14.06478311	    -13.50210405	     10.95207495	      0.19114977	    -30.54434176	    -10.29070413	     -7.49999987	    -17.87640689	      7.71944579	     12.78580431	      4.83745017	    -21.82065461	     -2.56691137	     40.82407557	     78.61390652	      3.97104413	     -6.49397549	     -5.97631805	     25.41353267	     83.59934586
     14.88333330	      8.26697179	      8.02096833	    180.52823455	      0.27501126	      0.96452083	      0.70998909	      9.98963967	     10.60993287	      5.63762573	     27.40020924	      0.47822387	      9.62150099	      4.52795611	     -7.49999987	     30.11654428	    -13.65593620	    -13.62435360	     11.11643775	      0.19401844	    -29.84318999	    -11.17554947	     -7.49999987	    -17.89176484	      7.06457080	     12.35970534	      5.51053827	    -21.35801713	     -2.44331168	     40.73714916	     77.91841862	      3.60377612	     -7.02917979	     -6.38298383	     24.26618182	     82.71664259
     14.90000000	      8.59521849	      7.60339072	    180.82680821	      0.27361472	      0.95651950	      0.71099004	     10.05215008	     10.13535418	      7.02045229	     28.86342212	      0.50376175	     12.25911687	      3.31714595	     -7.49999987	     31.06238634	    -13.20651211	    -13.22203226	     12.13510826	      0.21179759	    -28.68178643	    -12.90310693	     -7.49999987	    -17.91589804	      6.25430441	     12.21180374	      5.93390777	    -20.83106092	     -2.56472290	     40.69196120	     77.81746300	      3.42850419	     -7.58287906	     -6.71762543	     23.23249502	     82.64610735
     14.91666670	      8.72401497	      6.82682721	    181.26694624	      0.27030974	      0.94730059	      0.71428301	      9.61080869	      9.34116944	      8.10580422	     30.67398894	      0.53536210	     15.54656620	      1.54527099	     -7.49999987	     32.06269456	    -12.28400910	    -12.33486385	     14.23274969	      0.24840834	    -25.52030180	    -15.12986590	     -7.49999987	    -17.90013952	      5.13266943	     11.82796286	      6.29578788	    -20.08004456	     -2.90578004	     40.08261330	     77.56576712	      3.25859619	     -8.22751929	     -7.08289547	     22.34285456	     82.27202060
     14.93333330	      8.89358197	      5.86213956	    181.47766249	      0.26452227	      0.93921897	      0.71803404	      8.44866006	      8.24921931	      9.17754753	     31.53268265	      0.55034913	     17.64703752	     -0.47509450	     -7.49999987	     32.83984824	    -11.02668276	    -10.85841327	     16.80934279	      0.29337838	    -22.33192525	    -18.32362128	     -7.49999987	    -17.26366207	      3.99235626	     11.93676995	      5.44364382	    -19.12733506	     -5.29459959	     40.29297546	     81.15514589	      3.24143535	     -8.68315709	     -7.98879663	     20.83988510	     86.85622965
     14.95000000	      8.50395448	      5.03128737	    181.21115724	      0.25808214	      0.93314563	      0.71998333	      6.35399469	      7.21827285	     10.53806342	     31.60814391	      0.55166618	     17.93776478	     -3.28336511	     -7.49999987	     32.49396374	    -10.01329809	     -9.41520072	     19.19700679	      0.33505097	    -19.94374690	    -20.75501563	     -7.49999987	    -16.96452304	      2.99867679	     11.76978789	      5.13907655	    -18.40621254	     -5.35426854	     39.58639256	     80.32509878	      2.40848590	     -9.09298394	     -8.43499301	     20.27766922	     85.57250738
     14.96666670	      8.69894017	      4.82160967	    180.79663214	      0.25327978	      0.93082420	      0.72093715	      5.38125774	      6.72360108	     11.45719359	     32.05402231	      0.55944823	     16.92154510	     -6.32451307	     -7.49999987	     32.79718560	     -9.58138996	     -7.67328463	     21.30557717	      0.37185247	    -18.38929202	    -22.49795054	     -7.49999987	    -15.99565125	      2.74074199	     11.94186942	      4.05831160	    -17.86353108	     -5.73928834	     39.36717818	     80.49585906	      1.53008589	     -9.27344071	     -8.87485547	     19.61151427	     85.75201013
